<?xml version="1.0" encoding="utf-8"?>
<!-- Generator: Adobe Illustrator 23.0.3, SVG Export Plug-In . SVG Version: 6.00 Build 0)  -->
<svg version="1.1" id="Layer_1" xmlns="http://www.w3.org/2000/svg" xmlns:xlink="http://www.w3.org/1999/xlink" x="0px" y="0px"
	 viewBox="0 0 2000 2000" style="enable-background:new 0 0 2000 2000;" xml:space="preserve">
<style type="text/css">
	.st0{opacity:0.3;}
</style>
<g>
	<g>
		<path d="M980.89,281.78C584.22,281.79,262.68,603.33,262.67,1000c0.01,396.67,321.55,718.21,718.22,718.22
			c396.67-0.01,718.22-321.55,718.23-718.22C1699.11,603.33,1377.56,281.79,980.89,281.78z M980.89,321.31
			c144.7,0.01,278.62,45.38,388.75,122.52L980.89,648.21L592.14,443.83C702.27,366.7,836.19,321.32,980.89,321.31z M980.89,1614.25
			l-180.52-365.78l-403.67-58.66L688.8,905.09l-68.95-402.03l361.05,189.81l9.2-4.84l351.85-184.98l-68.95,402.03l292.1,284.72
			l-403.67,58.66L980.89,1614.25z M500.99,520.1c22.21-22.2,45.99-42.81,71.07-61.78l74.26,432.97l-314.68,306.74
			c-19.08-62.65-29.43-129.11-29.43-198.03C302.22,812.52,378.14,642.98,500.99,520.1z M500.99,1479.9
			c-72.01-72.03-127.72-160.17-161.64-258.48l434.77,63.18l194.33,393.76C785.94,1675.07,621.13,1600.02,500.99,1479.9z
			 M1460.8,1479.9c-120.15,120.11-284.95,195.17-467.46,198.47l194.34-393.76l434.77-63.18
			C1588.52,1319.73,1532.81,1407.88,1460.8,1479.9z M1630.16,1198.03l-314.69-306.74l74.26-432.97
			c25.09,18.97,48.87,39.58,71.07,61.78c122.85,122.88,198.78,292.43,198.79,479.9C1659.58,1068.92,1649.24,1135.38,1630.16,1198.03
			z"/>
		<path d="M834.08,1011.8c38.67,0,70.03-36.18,70.03-80.8c0-44.63-31.36-80.8-70.03-80.8c-38.68,0-70.03,36.18-70.03,80.8
			C764.06,975.62,795.41,1011.8,834.08,1011.8z M852.4,866.6c11.17,0,20.22,9.05,20.22,20.22c0,11.16-9.05,20.22-20.22,20.22
			c-11.16,0-20.22-9.05-20.22-20.22C832.19,875.66,841.24,866.6,852.4,866.6z"/>
		<path d="M1127.71,1011.8c38.67,0,70.02-36.18,70.02-80.8c0-44.63-31.35-80.8-70.02-80.8c-38.68,0-70.03,36.18-70.03,80.8
			C1057.68,975.62,1089.03,1011.8,1127.71,1011.8z M1146.03,866.6c11.16,0,20.22,9.05,20.22,20.22c0,11.16-9.05,20.22-20.22,20.22
			c-11.17,0-20.22-9.05-20.22-20.22C1125.81,875.66,1134.86,866.6,1146.03,866.6z"/>
		<path d="M1190.64,1124.14c-7.05-7.12-13.4-11.54-19.19-16.65l-17.16-13.58c-5.7-4.39-11.56-8.72-17.89-13.2
			c-6.45-4.45-13.04-8.98-21.67-13.62c-1.05,9.88,1.82,18.85,5.89,26.95c4.25,8.02,10.28,15.09,17.53,20.71
			c1.55,1.22,3.19,2.33,4.87,3.41c-19.67,22.2-43.64,37.11-69.15,47.32c-29.63,11.82-61.28,17.06-92.98,17.29
			c-31.69-0.18-63.36-5.42-93-17.25c-25.53-10.19-49.5-25.13-69.14-47.35c1.68-1.08,3.33-2.2,4.88-3.42
			c7.25-5.62,13.28-12.68,17.53-20.71c4.07-8.1,6.94-17.07,5.89-26.95c-8.62,4.65-15.22,9.18-21.67,13.62
			c-6.32,4.48-12.19,8.82-17.88,13.2l-17.16,13.58c-5.8,5.1-12.15,9.53-19.19,16.65c13.98,5.8,29.21,3.65,42.01-2.81
			c4.09,12.41,10.76,24.22,18.85,34.9c11.53,14.5,25.77,27.12,41.77,36.86c32.02,19.61,69.77,29.01,107.1,29.18
			c37.33-0.11,75.1-9.52,107.13-29.14c16.01-9.73,30.24-22.37,41.78-36.87c8.09-10.7,14.76-22.51,18.84-34.93
			C1161.44,1127.79,1176.66,1129.94,1190.64,1124.14z"/>
		<path d="M920.65,1250.99h-4.34l64.39,130.46l62.88-127.41c-17.52,5.86-36.87,9.13-57.26,9.13
			C962.63,1263.17,940.29,1258.76,920.65,1250.99z"/>
		<path d="M1197.73,466.93c0-19.17-100.36-34.71-224.16-34.71c-123.8,0-224.17,15.54-224.17,34.71c0,19.16,100.36,34.7,224.17,34.7
			C1097.37,501.63,1197.73,486.09,1197.73,466.93z M973.57,494.81c-99.47,0-180.1-12.48-180.1-27.88c0-15.4,80.63-27.89,180.1-27.89
			c99.46,0,180.1,12.48,180.1,27.89C1153.67,482.32,1073.03,494.81,973.57,494.81z"/>
	</g>
	<g class="st0">
		<path d="M659.1,1580.37c-43.5-27.25-83.76-59.22-119.91-95.36c-67.92-67.93-121.31-150.21-155.63-241.82l-21.21-3.08
			c33.23,85.45,84.54,164.23,149.36,229.07C556.01,1513.45,605.63,1550.68,659.1,1580.37z"/>
		<path d="M511.72,530.82C386.41,656.17,317.39,822.79,317.37,1000c0,57.37,7.36,114.24,21.9,169.4l17.31-16.88
			c-10.54-47.46-16.17-96.77-16.17-147.42c0.01-187.48,75.93-357.02,198.78-479.9c8.08-8.07,16.43-15.86,24.91-23.51l-2.7-15.71
			C543.96,500.2,527.32,515.23,511.72,530.82z"/>
		<polygon points="429.31,1179.22 448.2,1181.96 727.01,910.19 664.11,543.47 639.99,530.79 703.75,902.52 705.1,910.39 
			699.39,915.95 		"/>
		<polygon points="1019.1,697.98 1028.3,693.14 1320.28,539.64 1321.79,530.79 1011.44,693.95 		"/>
		<polygon points="818.36,1250.64 980.89,1579.98 990.28,1560.96 838.58,1253.58 		"/>
		<path d="M1365.68,375.94c209.03,129.36,348.6,360.71,348.61,624.06c-0.01,330.69-220.05,610.92-521.39,702.1
			c312.68-77.72,544.42-360.27,544.43-697C1737.32,734.12,1587.24,498.24,1365.68,375.94z"/>
		<path d="M1223.4,1294.75l-25.65,3.73l-179.54,363.81c8.29-0.46,16.53-1.17,24.76-1.93L1223.4,1294.75z"/>
		<path d="M1400.38,485.97l-68.61,400.02l290.75,283.41c0.77-2.93,1.44-5.89,2.18-8.83l-271.02-264.17l67.35-392.7
			C1414.25,497.69,1407.43,491.72,1400.38,485.97z"/>
		<path d="M632.15,447.72c57.22-39.81,120.85-70.99,189.01-91.79c-70.45,17.43-137.7,46.39-199.47,86.3L632.15,447.72z"/>
	</g>
</g>
</svg>
